<svg width="142" height="108" viewBox="0 0 142 108" fill="none" xmlns="http://www.w3.org/2000/svg">
<g filter="url(#filter0_d)">
<circle cx="73" cy="50" r="50" fill="#68B738"/>
<g clip-path="url(#clip0)">
<path d="M127.1 25.8C128.254 23.9631 129.789 22.3946 131.6 21.2C132.6 20.5 133.2 20.5 133.8 21.8C134.6 23.7 135.3 25.7 134.7 27.8C134.591 28.1562 134.57 28.5336 134.64 28.8995C134.71 29.2655 134.867 29.6089 135.1 29.9C135.7 30.7 136.2 31.5 136.7 32.2C137.38 33.0638 137.822 34.0913 137.98 35.1795C138.138 36.2678 138.007 37.3784 137.6 38.4C137.233 39.3918 137.163 40.4692 137.4 41.5C137.6 42.49 137.6 43.51 137.4 44.5C137.319 45.2414 137.019 45.9419 136.538 46.5119C136.057 47.0819 135.417 47.4956 134.7 47.7C133.421 47.9434 132.279 48.6569 131.5 49.7C131.405 49.8536 131.273 49.9803 131.115 50.0679C130.958 50.1555 130.78 50.201 130.6 50.2C129.4 50.4 126.4 47.7 126.4 46.5V45.9C126.5 42.3 126.3 42 123 40.5C122.309 40.2564 121.69 39.8439 121.2 39.3C120.6 38.5 119.8 38.6 118.9 38.9C118 39.2 117.5 39.8 117.6 40.8C117.901 43.2209 118.002 45.6626 117.9 48.1C117.907 48.3782 117.975 48.6514 118.1 48.9C121.2 53.4 122.4 58.7 123.9 63.8C125.1 67.7 127.3 69.8 131.3 70.1C131.94 70.1511 132.575 70.2514 133.2 70.4C134.022 70.532 134.785 70.9076 135.391 71.478C135.997 72.0485 136.418 72.7877 136.6 73.6C137.3 75.7 136.9 76.2 134.8 76.2H128.3C127.458 76.2426 126.633 75.9556 126 75.4C124.988 74.5459 123.838 73.8696 122.6 73.4C121.231 72.8947 120.046 71.9887 119.2 70.8C118.029 69.1635 116.688 67.6551 115.2 66.3C112.4 63.4 109.4 60.6 106.8 57.6C104.821 55.5558 103.679 52.8443 103.6 50C103.6 49.1 103.4 48.7 102.4 49.1C102.1 49.29 101.754 49.3938 101.4 49.4C98.5999 49.4 97.1999 51.1 96.1999 53.6C95.2999 55.7 94.0999 57.7 92.9999 59.8C92.3762 61.1145 92.0355 62.5454 91.9999 64C91.9999 66.4 92.5999 67.2 94.7999 68C96.1999 68.5 97.4999 69 98.1999 70.4C98.9999 72 98.7999 72.4 97.0999 72.5H90.2999C89.9079 72.5388 89.5136 72.4535 89.1727 72.2562C88.8317 72.0588 88.5614 71.7593 88.3999 71.4L86.5999 68.4C86.0693 67.6172 85.7296 66.721 85.6081 65.7832C85.4865 64.8454 85.5865 63.8922 85.8999 63C86.3327 61.2635 86.3669 59.4516 85.9999 57.7C85.7478 56.4801 85.7696 55.2195 86.0635 54.009C86.3575 52.7986 86.9164 51.6684 87.6999 50.7C88.2999 50 88.2999 49.7 87.2999 49.5C83.2108 48.6314 79.2466 47.254 75.4999 45.4C75.4734 45.4 75.448 45.3895 75.4292 45.3707C75.4105 45.352 75.3999 45.3265 75.3999 45.3C72.1999 44.1 71.5999 44.3 70.6999 47.6C69.8999 50.4 69.0999 53.2 68.4999 56.1C67.7999 59.3 68.5999 62.3 69.5999 65.3C69.9999 66.5 71.1999 66.4 72.0999 66.7C74.0999 67.3 75.7999 68.1 76.5999 70.2C77.2999 71.8 77.1999 72 75.4999 72C73.7999 72 72.0999 71.9 70.2999 72C68.781 72.0275 67.2985 71.5334 66.0999 70.6C61.2999 67.4 59.8999 62.5 59.4999 57.2C59.2999 53.9 57.4999 51.3 55.3999 48.8C54.9999 48.3 54.5999 48.1 53.9999 48.5C51.8534 49.6836 49.6124 50.687 47.2999 51.5C42.4742 53.204 38.2395 56.2585 35.0999 60.3C33.9276 61.775 33.1683 63.5351 32.8999 65.4C32.5999 67.2 33.0999 68 34.8999 68.5C36.6999 69 37.5999 70 37.7999 71.9C37.8999 72.7 37.5999 73.1 36.7999 73.1H28.6999C28.4348 73.0812 28.1782 72.9987 27.9518 72.8594C27.7255 72.7201 27.5362 72.5282 27.3999 72.3C26.1438 70.7448 25.4716 68.799 25.4999 66.8C25.4474 63.3449 25.749 59.8936 26.3999 56.5C26.5334 55.4837 26.9128 54.5153 27.5053 53.6788C28.0978 52.8424 28.8855 52.1631 29.7999 51.7C35.6999 48.9 38.7999 43.6 41.5999 38.1C42.1999 37 41.6999 36.8 40.6999 36.9C37.9013 37.2885 35.2496 38.3905 32.9999 40.1C30.0541 42.2488 27.2791 44.6226 24.6999 47.2C21.9496 49.9937 18.3026 51.7286 14.3999 52.1C7.09992 52.5 3.69992 48.4 3.99992 41.8C4.06698 39.5496 4.91557 37.3928 6.39992 35.7C6.91594 35.031 7.61965 34.531 8.42119 34.2638C9.22272 33.9966 10.0857 33.9744 10.8999 34.2C12.3999 34.6 12.7999 35.4 12.1999 36.9C11.8999 37.5 11.4999 38 11.1999 38.6C10.7685 39.213 10.4314 39.8871 10.1999 40.6C9.09992 43.6 10.5999 45.7 13.6999 46C16.9999 46.3 19.6999 44.9 22.1999 42.9C25.2118 40.4882 27.9006 37.6986 30.1999 34.6C31.9192 32.3374 34.084 30.4513 36.5607 29.0581C39.0375 27.665 41.7735 26.7943 44.5999 26.5C46.8999 26.2 48.8999 25.2 51.0999 24.6C55.2144 23.3456 59.4989 22.7384 63.7999 22.8C65.792 22.883 67.7765 22.5066 69.5999 21.7C74.4999 19.7 79.5999 19.7 84.6999 20.7C88.6999 21.5 92.6999 22.5 96.5999 23.5C98.9209 23.9325 101.307 23.8643 103.6 23.3C107.989 22.1875 112.478 21.5175 117 21.3C119.962 21.1559 122.915 21.7395 125.6 23C127.6 23.9 127.6 23.9 127.1 25.8Z" fill="black"/>
</g>
</g>
<defs>
<filter id="filter0_d" x="0" y="0" width="142" height="108" filterUnits="userSpaceOnUse" color-interpolation-filters="sRGB">
<feFlood flood-opacity="0" result="BackgroundImageFix"/>
<feColorMatrix in="SourceAlpha" type="matrix" values="0 0 0 0 0 0 0 0 0 0 0 0 0 0 0 0 0 0 127 0"/>
<feOffset dy="4"/>
<feGaussianBlur stdDeviation="2"/>
<feColorMatrix type="matrix" values="0 0 0 0 0 0 0 0 0 0 0 0 0 0 0 0 0 0 0.25 0"/>
<feBlend mode="normal" in2="BackgroundImageFix" result="effect1_dropShadow"/>
<feBlend mode="normal" in="SourceGraphic" in2="effect1_dropShadow" result="shape"/>
</filter>
<clipPath id="clip0">
<rect width="134" height="56" fill="white" transform="translate(4 20)"/>
</clipPath>
</defs>
</svg>
